# xmcd
#
# Track frame offsets:
#	150
#	16901
#	33991
#
# Disc length: 702 seconds
# Revision: 0
# Processed by: cddbd v1.5.2PL0 Copyright (c) Steve Scherf et al.
# Submitted via: dBpowerAMP V12.0
#
DISCID=1702bc03
DTITLE=Gina Jeffries - Live It
DYEAR=2006
DGENRE=Country
TTITLE0=Live It
TTITLE1=Live It (radio mix)
TTITLE2=Joy and the Oak
EXTD=
EXTT0=
EXTT1=
EXTT2=
PLAYORDER=
